<?xml version="1.0" encoding="UTF-8" standalone="no"?>
<svg width="60px" height="35px" viewBox="0 0 60 35" version="1.1" xmlns="http://www.w3.org/2000/svg" xmlns:xlink="http://www.w3.org/1999/xlink">
    <!-- Generator: Sketch 40.3 (33839) - http://www.bohemiancoding.com/sketch -->
    <title>Group 3</title>
    <desc>Created with Sketch.</desc>
    <defs></defs>
    <g id="Page-1" stroke="none" stroke-width="1" fill="none" fill-rule="evenodd">
        <g id="phone-1" transform="translate(-155.000000, -1252.000000)" fill="#00D66C">
            <g id="Group-3" transform="translate(156.000000, 1252.000000)">
                <path d="M34.8971529,0 C33.1392629,0 31.655043,0.629000221 30.2955198,1.99514456 L30.2911057,1.9995586 C30.2734496,1.98079894 30.2557934,1.96314279 30.2370338,1.94548665 C28.9172368,0.636724785 27.4407416,2.45028255e-16 25.7258883,2.45028255e-16 C23.9293754,2.45028255e-16 22.2387994,0.699624807 20.9686603,1.96976385 C19.6996248,3.23990289 19,4.9282719 19,6.72368131 C19,8.5179872 19.6985213,10.2063562 20.9642463,11.4753917 L28.7914368,19.3665857 C29.1898036,19.7693666 29.7426617,20 30.3098654,20 C30.8770691,20 31.4310307,19.7693666 31.828294,19.3676893 L39.6532774,11.4775988 C40.922313,10.2074597 41.6208343,8.51909071 41.6208343,6.72368131 C41.6208343,4.9271684 40.9212094,3.23879938 39.6510704,1.96866034 C38.3831384,0.699624807 36.6936659,4.90056511e-16 34.8971529,4.90056511e-16 L34.8971529,0 Z" id="Shape"></path>
                <text id="favorieten" font-family="NexaBold, Nexa Bold" font-size="12" font-weight="bold">
                    <tspan x="0" y="34">favorieten</tspan>
                </text>
            </g>
        </g>
    </g>
</svg>