<?xml version="1.0" encoding="UTF-8" standalone="no"?>
<svg width="87px" height="78px" viewBox="0 0 87 78" version="1.1" xmlns="http://www.w3.org/2000/svg" xmlns:xlink="http://www.w3.org/1999/xlink">
    <!-- Generator: Sketch 3.8.2 (29753) - http://www.bohemiancoding.com/sketch -->
    <title>Slice 1</title>
    <desc>Created with Sketch.</desc>
    <defs></defs>
    <g id="Page-1" stroke="none" stroke-width="1" fill="none" fill-rule="evenodd">
        <g id="heart" fill="#00D66C">
            <path d="M83.7,15 C79.7,5.9 71,0 61.8,0 C52.5,0 46.5,4.1 43,8.5 C39.5,4.1 33.5,0 24.2,0 C15,0 6.3,5.9 2.3,15 C-2,24.5 -0.2,35 7.2,43.2 C24.7,62.9 40.2,76.8 40.4,76.9 C41.2,77.6 42.1,77.9 43.1,77.9 C44.1,77.9 45,77.6 45.8,76.9 C46,76.8 61.4,62.8 79,43.2 C86.2,35 88,24.5 83.7,15 L83.7,15 Z M72.9,37.9 C59.9,52.4 48.1,63.8 43,68.6 C37.9,63.8 26.1,52.5 13.1,37.9 C7.9,32 6.6,24.9 9.5,18.2 C12.3,12.1 18.2,8 24.2,8 C36.1,8 38.8,16.9 39.1,18 C39.5,19.8 41.1,21 42.9,21 L42.9,21 C44.7,21 46.3,19.7 46.8,18 C47.1,17 49.8,8 61.7,8 C67.7,8 73.6,12.1 76.4,18.3 C79.4,24.9 78.1,32 72.9,37.9 L72.9,37.9 Z" id="XMLID_1401_"></path>
        </g>
    </g>
</svg>