<?xml version="1.0" encoding="UTF-8" standalone="no"?>
<svg width="86px" height="78px" viewBox="0 0 86 78" version="1.1" xmlns="http://www.w3.org/2000/svg" xmlns:xlink="http://www.w3.org/1999/xlink">
    <!-- Generator: Sketch 3.8.2 (29753) - http://www.bohemiancoding.com/sketch -->
    <title>XMLID_1401_</title>
    <desc>Created with Sketch.</desc>
    <defs></defs>
    <g id="Page-1" stroke="none" stroke-width="1" fill="none" fill-rule="evenodd">
        <g id="heart" fill="#00D66C">
            <path d="M83.7,15 C79.7,5.9 71,0 61.8,0 C52.5,0 46.5,4.1 43,8.5 C39.5,4.1 33.5,0 24.2,0 C15,0 6.3,5.9 2.3,15 C-2,24.5 -0.2,35 7.2,43.2 C24.7,62.9 40.2,76.8 40.4,76.9 C41.2,77.6 42.1,77.9 43.1,77.9 C44.1,77.9 45,77.6 45.8,76.9 C46,76.8 61.4,62.8 79,43.2 C86.2,35 88,24.5 83.7,15 L83.7,15 Z" id="XMLID_1401_"></path>
        </g>
    </g>
</svg>