<?xml version="1.0" encoding="UTF-8" standalone="no"?>
<svg width="50px" height="35px" viewBox="0 0 50 35" version="1.1" xmlns="http://www.w3.org/2000/svg" xmlns:xlink="http://www.w3.org/1999/xlink">
    <!-- Generator: Sketch 40.3 (33839) - http://www.bohemiancoding.com/sketch -->
    <title>Group 2</title>
    <desc>Created with Sketch.</desc>
    <defs></defs>
    <g id="Page-1" stroke="none" stroke-width="1" fill="none" fill-rule="evenodd">
        <g id="phone-1" transform="translate(-48.000000, -1252.000000)" fill="#00D66C">
            <g id="Group-2" transform="translate(48.000000, 1252.000000)">
                <g id="reading-books-three-black-rectangles" transform="translate(16.000000, 0.000000)">
                    <g id="Group">
                        <path d="M16.5640783,19.9374917 L19.2837194,19.2006601 C19.7761501,19.0666997 20.0699511,18.5581848 19.9346819,18.0449505 L15.3488091,0.734818482 C15.2154649,0.23009901 14.7006199,-0.0689768977 14.2147145,0.0631023102 L11.495106,0.799933993 C11.0017292,0.933894389 10.7088418,1.44240924 10.8441109,1.95564356 L15.4290375,19.2657756 C15.5633605,19.7705281 16.0772594,20.0686469 16.5640783,19.9374917 L16.5640783,19.9374917 Z" id="Shape"></path>
                        <path d="M3.73905383,19.9063696 C4.24923328,19.9063696 4.6633279,19.4912541 4.6633279,18.960099 L4.6633279,1.03957096 C4.6633279,0.51689769 4.24267537,0.0942244224 3.73905383,0.0942244224 L0.924274062,0.0942244224 C0.414094617,0.0942244224 0,0.508382838 0,1.03957096 L0,18.960132 C0,19.4828053 0.420652529,19.9054785 0.924274062,19.9054785 L3.73905383,19.9054785 L3.73905383,19.9063696 L3.73905383,19.9063696 Z" id="Shape"></path>
                        <path d="M9.33500816,19.9063696 C9.8451876,19.9063696 10.2592822,19.4921782 10.2592822,18.9610231 L10.2592822,1.03957096 C10.2592822,0.51689769 9.83862969,0.0942244224 9.33500816,0.0942244224 L6.52026101,0.0942244224 C6.01008157,0.0942244224 5.59598695,0.508382838 5.59598695,1.03957096 L5.59598695,18.960132 C5.59598695,19.4828053 6.01663948,19.9054785 6.52026101,19.9054785 L9.33500816,19.9054785 L9.33500816,19.9063696 L9.33500816,19.9063696 Z" id="Shape"></path>
                    </g>
                </g>
                <text id="verhalen" font-family="NexaBold, Nexa Bold" font-size="12" font-weight="bold">
                    <tspan x="0" y="34">verhalen</tspan>
                </text>
            </g>
        </g>
    </g>
</svg>